<?xml version="1.0" standalone="no"?>
<!DOCTYPE svg PUBLIC "-//W3C//DTD SVG 20010904//EN"
 "http://www.w3.org/TR/2001/REC-SVG-20010904/DTD/svg10.dtd">
<svg version="1.0" xmlns="http://www.w3.org/2000/svg"
 width="260.000000pt" height="260.000000pt" viewBox="0 0 260.000000 260.000000"
 preserveAspectRatio="xMidYMid meet">
<metadata>
Created by potrace 1.11, written by Peter Selinger 2001-2013
</metadata>
<g transform="translate(0.000000,260.000000) scale(0.100000,-0.100000)"
fill="#000000" stroke="none">
<path d="M180 2590 c0 -5 -9 -10 -20 -10 -11 0 -20 -4 -20 -10 0 -5 -7 -10
-15 -10 -20 0 -85 -65 -85 -85 0 -8 -4 -15 -10 -15 -5 0 -10 -9 -10 -20 0 -11
-4 -20 -10 -20 -7 0 -10 -380 -10 -1120 0 -740 3 -1120 10 -1120 6 0 10 -9 10
-20 0 -11 5 -20 10 -20 6 0 10 -7 10 -15 0 -20 65 -85 85 -85 8 0 15 -4 15
-10 0 -5 9 -10 20 -10 11 0 20 -4 20 -10 0 -7 382 -10 1125 -10 743 0 1125 3
1125 10 0 6 9 10 20 10 11 0 20 5 20 10 0 6 7 10 15 10 20 0 85 65 85 84 0 8
6 16 12 18 19 7 19 2309 1 2316 -7 2 -13 10 -13 18 0 19 -65 84 -85 84 -8 0
-15 5 -15 10 0 6 -9 10 -20 10 -11 0 -20 5 -20 10 0 7 -382 10 -1125 10 -743
0 -1125 -3 -1125 -10z m1550 -1130 c0 -367 -3 -560 -10 -560 -5 0 -10 -13 -10
-30 0 -16 -4 -30 -10 -30 -5 0 -10 -9 -10 -20 0 -11 -4 -20 -10 -20 -5 0 -10
-8 -10 -18 0 -10 -9 -24 -20 -32 -11 -8 -20 -20 -20 -28 0 -16 -24 -42 -40
-42 -15 0 -40 -25 -40 -40 0 -17 -26 -40 -44 -40 -9 0 -16 -4 -16 -10 0 -5
-13 -10 -30 -10 -16 0 -30 -4 -30 -10 0 -5 -13 -10 -30 -10 -16 0 -30 -4 -30
-10 0 -6 -65 -10 -175 -10 -110 0 -175 4 -175 10 0 6 -18 10 -40 10 -22 0 -40
5 -40 10 0 6 -7 10 -16 10 -34 0 -44 26 -44 114 l0 86 30 0 c17 0 30 -4 30
-10 0 -5 14 -10 30 -10 17 0 30 -4 30 -10 0 -5 23 -10 50 -10 28 0 50 -4 50
-10 0 -6 37 -10 90 -10 53 0 90 4 90 10 0 6 20 10 45 10 25 0 45 5 45 10 0 6
8 10 18 10 10 0 24 9 32 20 8 11 20 20 28 20 18 0 42 25 42 44 0 9 5 16 10 16
6 0 10 9 10 20 0 11 5 20 10 20 7 0 10 193 10 560 l0 560 100 0 100 0 0 -560z"/>
</g>
</svg>
